<?xml version="1.0" encoding="UTF-8"?>
<svg xmlns="http://www.w3.org/2000/svg" xmlns:xlink="http://www.w3.org/1999/xlink" width="360px" height="240px" viewBox="0 0 360 240" version="1.1">
<defs>
<linearGradient id="linear0" gradientUnits="userSpaceOnUse" x1="139.932007" y1="0.00000403119" x2="502.256012" y2="348.415985" gradientTransform="matrix(0.46875,0,0,1.548387,0,0)">
<stop offset="0" style="stop-color:rgb(34.901961%,87.45098%,45.490196%);stop-opacity:1;"/>
<stop offset="1" style="stop-color:rgb(8.235294%,75.294118%,71.372549%);stop-opacity:1;"/>
</linearGradient>
</defs>
<g id="surface1">
<path style=" stroke:none;fill-rule:evenodd;fill:url(#linear0);" d="M 72.894531 120 C 72.894531 129.699219 72.5 139.070312 71.839844 148.117188 C 67.980469 200.734375 53.59375 240 36.449219 240 C 16.34375 240 0 186.152344 0 120 C 0 53.847656 16.34375 0 36.449219 0 C 48.242188 0 58.703125 18.636719 65.367188 47.371094 L 57.914062 70.277344 C 53.15625 48.023438 45.316406 33.4375 36.449219 33.4375 C 21.949219 33.4375 10.167969 72.339844 10.167969 120.035156 C 10.167969 167.730469 21.949219 206.5625 36.449219 206.5625 C 47.945312 206.5625 57.726562 182.0625 61.277344 148.117188 L 39.613281 148.117188 L 39.613281 115.1875 L 72.816406 115.1875 C 72.828125 115.804688 72.839844 116.410156 72.851562 117.015625 C 72.875 118.007812 72.894531 118.988281 72.894531 120 Z M 86.957031 236.054688 L 121.65625 0.6875 L 156.375 236.054688 L 144.914062 236.054688 L 137.054688 181.988281 L 106.277344 181.988281 L 98.417969 236.054688 Z M 110.695312 150.398438 L 132.613281 150.398438 L 121.65625 74.691406 Z M 301.351562 1.15625 L 301.351562 35.429688 L 325.300781 35.429688 L 325.300781 235.65625 L 336.050781 235.65625 L 336.050781 35.429688 L 360 35.429688 L 360 1.15625 Z M 276.332031 3.945312 L 276.332031 236.054688 L 265.691406 236.054688 L 265.691406 3.945312 Z M 219.480469 231.785156 C 222.339844 228.816406 224.953125 223.5 227.242188 215.96875 C 231.054688 203.703125 232.988281 188.503906 232.988281 170.773438 C 232.988281 157.238281 231.902344 145.222656 229.757812 135.019531 C 228.363281 128.25 226.605469 122.714844 224.503906 118.589844 C 226.175781 114.753906 227.601562 109.941406 228.757812 104.292969 C 230.902344 94.089844 231.988281 82.074219 231.988281 68.539062 C 231.988281 50.808594 230.054688 35.609375 226.25 23.339844 C 223.964844 15.8125 221.347656 10.496094 218.480469 7.527344 C 215.371094 4.703125 209.535156 3.257812 204.851562 3.257812 L 182.089844 3.257812 L 182.089844 236.054688 L 207.742188 236.054688 C 212.414062 236.054688 216.359375 234.609375 219.46875 231.785156 Z M 207.820312 36.585938 C 212.425781 36.585938 215.855469 39.589844 217.996094 45.488281 C 220.25 51.859375 221.394531 60.074219 221.394531 69.878906 C 221.394531 79.6875 220.292969 87.503906 218.128906 93.980469 C 216.019531 100.386719 207.753906 103.605469 202.257812 103.605469 L 192.835938 103.605469 L 192.835938 36.585938 Z M 192.828125 135.742188 L 207.65625 135.742188 C 213.140625 135.742188 216.996094 139 219.117188 145.367188 C 221.285156 151.84375 222.382812 159.953125 222.382812 169.46875 C 222.382812 178.988281 221.238281 187.457031 218.988281 193.824219 C 216.84375 199.757812 213.414062 202.726562 208.808594 202.726562 L 192.828125 202.726562 Z M 192.828125 135.742188 "/>
</g>
</svg>
