<?xml version="1.0" encoding="UTF-8"?>
<svg xmlns="http://www.w3.org/2000/svg" xmlns:xlink="http://www.w3.org/1999/xlink" width="360px" height="240px" viewBox="0 0 360 240" version="1.1">
<g id="surface1">
<path style=" stroke:none;fill-rule:nonzero;fill:rgb(3.137255%,3.137255%,3.137255%);fill-opacity:1;" d="M 110.609375 73.683594 C 95.875 73.683594 83.929688 110.914062 83.929688 156.835938 C 83.929688 202.753906 95.875 240 110.609375 240 C 125.347656 240 137.285156 202.769531 137.285156 156.835938 C 137.285156 110.898438 125.34375 73.683594 110.609375 73.683594 Z M 110.609375 196.664062 C 103.554688 196.664062 97.835938 178.828125 97.835938 156.835938 C 97.835938 134.839844 103.554688 117.019531 110.609375 117.019531 C 117.667969 117.019531 123.382812 134.855469 123.382812 156.835938 C 123.382812 178.8125 117.667969 196.664062 110.609375 196.664062 Z M 110.609375 196.664062 "/>
<path style=" stroke:none;fill-rule:nonzero;fill:rgb(3.137255%,3.137255%,3.137255%);fill-opacity:1;" d="M 297.976562 73.683594 C 283.238281 73.683594 271.292969 110.914062 271.292969 156.835938 C 271.292969 202.753906 283.238281 240 297.976562 240 C 312.710938 240 324.652344 202.769531 324.652344 156.835938 C 324.652344 110.898438 312.707031 73.683594 297.976562 73.683594 Z M 297.976562 196.664062 C 290.921875 196.664062 285.195312 178.828125 285.195312 156.835938 C 285.195312 134.839844 290.921875 117.019531 297.976562 117.019531 C 305.03125 117.019531 310.75 134.855469 310.75 156.835938 C 310.75 178.8125 305.027344 196.664062 297.976562 196.664062 Z M 297.976562 196.664062 "/>
<path style=" stroke:none;fill-rule:nonzero;fill:rgb(3.137255%,3.137255%,3.137255%);fill-opacity:1;" d="M 195.222656 73.683594 L 195.222656 169.882812 C 195.222656 208.605469 185.152344 240 172.726562 240 L 166.847656 240 C 154.425781 240 144.351562 208.605469 144.351562 169.882812 L 144.351562 73.683594 L 159.472656 73.683594 L 159.472656 165.476562 C 159.472656 181.871094 163.738281 195.160156 169 195.160156 L 170.183594 195.160156 C 175.445312 195.160156 179.707031 181.871094 179.707031 165.476562 L 179.707031 73.683594 Z M 195.222656 73.683594 "/>
<path style=" stroke:none;fill-rule:nonzero;fill:rgb(3.137255%,3.137255%,3.137255%);fill-opacity:1;" d="M 237.625 73.683594 L 235.867188 111.738281 L 224.871094 111.738281 C 222.835938 111.738281 221.4375 116.003906 220.585938 119.839844 C 219.90625 122.917969 219.558594 126.597656 219.558594 130.339844 L 219.558594 239.984375 L 204.042969 239.984375 L 204.042969 122.03125 C 204.042969 95.328125 210.992188 73.667969 219.558594 73.667969 L 237.625 73.667969 Z M 237.625 73.683594 "/>
<path style=" stroke:none;fill-rule:nonzero;fill:rgb(3.137255%,3.137255%,3.137255%);fill-opacity:1;" d="M 261.71875 240 L 246.203125 240 L 246.203125 90.839844 L 261.71875 73.683594 Z M 261.71875 240 "/>
<path style=" stroke:none;fill-rule:nonzero;fill:rgb(3.137255%,3.137255%,3.137255%);fill-opacity:1;" d="M 359.535156 195.0625 L 358.070312 240 C 358.070312 240 337.605469 241.761719 337.605469 175.863281 L 337.605469 26.78125 L 353.117188 9.546875 L 353.117188 172.625 C 353.117188 176.71875 353.386719 180.792969 353.988281 184.441406 C 354.828125 189.5625 356.445312 195.0625 359.535156 195.0625 Z M 359.535156 195.0625 "/>
<path style=" stroke:none;fill-rule:nonzero;fill:rgb(3.137255%,3.137255%,3.137255%);fill-opacity:1;" d="M 312.648438 73.683594 L 328.160156 73.683594 L 328.160156 240 L 312.648438 240 Z M 312.648438 73.683594 "/>
<path style=" stroke:none;fill-rule:nonzero;fill:rgb(3.137255%,3.137255%,3.137255%);fill-opacity:1;" d="M 75.816406 156.898438 C 61.03125 290.152344 -1.09375 254.082031 0.496094 113.183594 C 1.363281 50.582031 19.292969 -1.632812 39.46875 0.03125 C 52.816406 1.15625 68.347656 21.421875 71.445312 73.921875 C 72.738281 100.957031 69.109375 127.945312 62.542969 144.941406 C 52.640625 169.898438 36.203125 173.5 29.753906 142.644531 C 26.683594 128.910156 26.070312 107.632812 30.039062 94.660156 C 38.925781 63.679688 55.320312 92.695312 50.074219 132.589844 C 50.054688 132.78125 50.054688 132.90625 50.089844 132.953125 C 51.28125 131.859375 53.375 126.945312 54.414062 123.582031 C 60.601562 104.269531 60.171875 74 51.820312 55.464844 C 43.640625 38.246094 36.023438 44.285156 32.429688 46.777344 C 19.074219 59.652344 13.152344 96.976562 15.140625 133.558594 C 18.851562 187.199219 36.417969 204.210938 46.101562 202.546875 C 59.242188 201.613281 68.386719 182.964844 75.789062 156.816406 L 75.816406 156.882812 Z M 75.816406 156.898438 "/>
</g>
</svg>
